<svg width="161" height="160" viewBox="0 0 161 160" fill="none" xmlns="http://www.w3.org/2000/svg">
<g id="Wood Crafts">
<path id="Vector" d="M150.552 159.284C146.643 159.284 143.653 157.756 141.582 154.701L140.946 158.568H140.028V145.75H141.299C141.299 149.855 141.958 152.911 143.277 154.916C144.595 156.873 146.596 157.852 149.28 157.852C151.493 157.852 153.141 157.088 154.224 155.56C155.307 153.985 155.849 151.98 155.849 149.545C155.849 147.588 155.166 146.036 153.801 144.89C152.482 143.744 150.528 142.551 147.938 141.31C146.149 140.45 144.736 139.687 143.7 139.018C142.665 138.35 141.77 137.514 141.016 136.512C140.31 135.509 139.957 134.292 139.957 132.86C139.957 129.947 140.852 127.704 142.641 126.128C144.477 124.505 146.785 123.693 149.563 123.693C151.211 123.693 152.765 124.099 154.224 124.911C155.731 125.675 156.602 126.486 156.838 127.346L157.332 123.693H158.25V133.074H157.191C157.191 130.974 156.555 129.088 155.284 127.417C154.013 125.746 152.341 124.911 150.269 124.911C146.455 124.911 144.548 127.035 144.548 131.284C144.548 132.764 145.09 133.958 146.173 134.865C147.256 135.772 148.974 136.846 151.329 138.087C153.306 139.137 154.907 140.092 156.132 140.952C157.356 141.763 158.392 142.837 159.239 144.174C160.134 145.511 160.581 147.134 160.581 149.044C160.581 150.667 160.157 152.266 159.31 153.842C158.462 155.417 157.262 156.73 155.708 157.78C154.201 158.783 152.482 159.284 150.552 159.284Z" fill="white"/>
<path id="Vector_2" d="M129.092 159.284C127.35 159.284 126.22 158.615 125.702 157.279C125.231 155.894 124.995 153.889 124.995 151.263V147.826V126.128H112.776V154.271C112.776 155.512 112.87 156.419 113.059 156.992C113.294 157.565 113.788 157.851 114.542 157.851C114.919 157.851 115.507 157.732 116.308 157.493V158.568H104.654V157.493C105.454 157.732 106.043 157.851 106.419 157.851C107.267 157.851 107.808 157.565 108.044 156.992C108.279 156.371 108.397 155.464 108.397 154.271V126.128H103.523V125.054H108.397V112.522C108.397 109.705 108.868 107.437 109.81 105.719C110.751 104 111.858 102.782 113.129 102.066C114.401 101.35 115.625 100.992 116.802 100.992C118.968 100.992 120.663 101.541 121.888 102.639C123.112 103.69 123.724 105.241 123.724 107.294C123.724 107.867 123.536 108.965 123.159 110.588C123.112 110.779 122.994 111.328 122.806 112.235C122.617 113.142 122.523 113.93 122.523 114.598C122.523 116.365 123.347 117.248 124.995 117.248C125.984 117.248 126.714 116.938 127.185 116.317C127.703 115.696 127.962 115.028 127.962 114.312H129.445L129.374 125.054H135.166V126.128H129.374L129.304 151.335C129.304 153.244 129.469 154.629 129.798 155.488C130.175 156.3 130.763 156.706 131.564 156.706C132.506 156.706 133.283 156.276 133.895 155.417C134.507 154.557 134.954 153.603 135.237 152.552C135.566 151.454 135.731 150.595 135.731 149.974H136.437C136.437 151.311 136.131 152.719 135.519 154.199C134.907 155.632 134.036 156.849 132.906 157.851C131.823 158.806 130.552 159.284 129.092 159.284ZM124.995 117.964C123.253 117.964 121.817 117.2 120.687 115.672C119.557 114.097 118.992 112.259 118.992 110.158C118.992 109.49 119.062 108.774 119.204 108.01C119.345 106.291 119.415 105.36 119.415 105.217C119.415 104.119 119.18 103.26 118.709 102.639C118.285 101.971 117.485 101.637 116.308 101.637C115.13 101.637 114.236 102.401 113.624 103.928C113.059 105.408 112.776 108.273 112.776 112.522V125.054H124.995V117.964Z" fill="white"/>
<path id="Vector_3" d="M81.6514 159.283C79.0145 159.283 76.8014 158.472 75.0121 156.849C73.2228 155.178 72.3281 152.815 72.3281 149.759C72.3281 147.563 73.058 145.701 74.5177 144.173C75.9774 142.598 77.5784 141.524 79.3206 140.951C80.2153 140.665 81.2512 140.402 82.4283 140.163C83.6526 139.877 84.4767 139.686 84.9004 139.59C87.2548 139.113 89.0206 138.683 90.1978 138.301C91.3749 137.872 92.0813 137.299 92.3167 136.583C92.3167 133.145 91.6575 130.281 90.339 127.989C89.0677 125.698 86.9252 124.552 83.9116 124.552C82.0281 124.552 80.6155 125.244 79.6737 126.629C78.7791 127.966 78.3318 129.78 78.3318 132.071C78.3318 132.692 78.4495 133.145 78.6849 133.432C78.9203 133.671 79.4618 133.79 80.3094 133.79C80.8274 133.79 81.2747 133.671 81.6514 133.432C82.0281 133.193 82.2165 132.907 82.2165 132.572H82.8521V134.506H73.5995C73.5995 132.787 74.0939 131.093 75.0827 129.422C76.0716 127.703 77.4371 126.318 79.1793 125.268C80.9216 124.17 82.8521 123.621 84.9711 123.621C87.7963 123.621 90.0565 124.289 91.7516 125.626C93.4939 126.915 94.7181 128.491 95.4245 130.353C96.1778 132.167 96.5545 133.981 96.5545 135.795V151.335C96.5545 154.915 97.3079 156.705 98.8147 156.705C99.2856 156.705 99.7094 156.395 100.086 155.775C100.51 155.106 100.722 154.438 100.722 153.769H101.428C101.428 155.536 100.887 156.896 99.8036 157.851C98.7676 158.806 97.5669 159.283 96.2014 159.283C94.6004 159.283 93.541 158.567 93.023 157.135C92.5521 155.703 92.3167 153.698 92.3167 151.12V147.826C92.3167 148.494 91.9871 149.759 91.3279 151.621C90.7157 153.483 89.6092 155.226 88.0082 156.849C86.4072 158.472 84.2883 159.283 81.6514 159.283ZM83.2759 157.278C84.8769 157.278 86.3601 156.634 87.7257 155.345C89.0912 154.056 90.1742 152.528 90.9747 150.762C91.7752 148.995 92.1754 147.515 92.1754 146.322V138.158C92.1754 138.301 91.94 138.445 91.4691 138.588C90.9982 138.731 90.4097 138.874 89.7033 139.017C86.6427 139.829 84.406 140.497 82.9934 141.023C80.7803 141.834 79.1558 142.98 78.1199 144.46C77.0839 145.892 76.566 147.515 76.566 149.33C76.566 151.43 77.131 153.292 78.2611 154.915C79.4383 156.491 81.1099 157.278 83.2759 157.278Z" fill="white"/>
<path id="Vector_4" d="M68.6837 129.709C68.6837 130.282 68.5896 130.926 68.4012 131.642C68.2129 132.358 68.0951 132.788 68.048 132.931C67.6714 134.172 67.483 135.008 67.483 135.438C67.483 136.392 68.1658 136.87 69.5313 136.87V137.586C67.6007 137.586 66.2116 137.085 65.3641 136.082C64.5636 135.08 64.1633 133.791 64.1633 132.215C64.1633 131.451 64.234 130.711 64.3752 129.995C64.6578 128.611 64.799 127.536 64.799 126.773C64.799 125.961 64.6342 125.412 64.3046 125.126C64.0221 124.791 63.5512 124.624 62.892 124.624C61.5265 124.624 60.467 126.104 59.7136 129.064C58.9602 131.976 58.5835 135.39 58.5835 139.305V154.271C58.5835 155.513 58.6777 156.42 58.866 156.993C59.1015 157.565 59.5959 157.852 60.3493 157.852C60.726 157.852 61.3146 157.733 62.1151 157.494V158.568H50.4609V157.494C51.2614 157.733 51.85 157.852 52.2267 157.852C53.0743 157.852 53.6158 157.565 53.8512 156.993C54.0867 156.372 54.2044 155.465 54.2044 154.271V128.778C53.4981 129.016 52.7447 129.136 51.9442 129.136C51.6146 129.136 51.1202 129.088 50.4609 128.993V127.059H51.0966C51.0966 127.393 51.2614 127.68 51.591 127.918C51.9677 128.157 52.3915 128.276 52.8624 128.276C53.5687 128.276 54.1808 128.014 54.6988 127.489C55.2168 126.964 55.8289 126.176 56.5352 125.126H57.2415L57.3121 130.926H58.0185C58.5835 128.444 59.3604 126.629 60.3493 125.484C61.3852 124.29 62.4682 123.693 63.5983 123.693C65.2464 123.693 66.4942 124.314 67.3417 125.555C68.2364 126.797 68.6837 128.181 68.6837 129.709Z" fill="white"/>
<path id="Vector_5" d="M27.9488 160.001C23.9464 160.001 20.1324 158.736 16.5066 156.206C12.928 153.628 10.0557 150.191 7.88965 145.894C5.72363 141.597 4.64062 136.99 4.64062 132.073C4.64062 126.726 5.67655 121.928 7.74839 117.679C9.82023 113.43 12.6455 110.112 16.2241 107.725C19.8027 105.338 23.7816 104.145 28.1607 104.145C30.6093 104.145 33.411 104.813 36.5658 106.15C39.7678 107.486 42.0044 109.014 43.2758 110.733L44.3352 105.362H45.536V121.331H44.0527C44.0527 118.849 43.2993 116.39 41.7925 113.955C40.3328 111.52 38.3081 109.515 35.7183 107.94C33.1285 106.364 30.2797 105.577 27.1719 105.577C23.97 105.577 21.1212 106.723 18.6256 109.014C16.1299 111.306 14.1758 114.457 12.7632 118.467C11.3506 122.429 10.6443 126.869 10.6443 131.786C10.6443 136.513 11.327 140.929 12.6926 145.035C14.1052 149.092 16.2241 152.363 19.0493 154.845C21.9217 157.328 25.4061 158.569 29.5027 158.569C32.5163 158.569 35.2709 157.686 37.7666 155.919C40.2622 154.153 42.1221 151.861 43.3464 149.045C43.4877 148.711 43.7702 147.732 44.194 146.109C44.5236 144.676 44.8532 143.483 45.1828 142.528C45.5595 141.526 46.0539 140.642 46.6661 139.879H47.6549C46.9015 140.547 46.36 141.788 46.0304 143.602C45.7479 145.416 45.6066 147.923 45.6066 151.121C45.6066 152.267 44.6884 153.556 42.852 154.988C41.0627 156.373 38.7789 157.566 36.0008 158.569C33.2697 159.524 30.5857 160.001 27.9488 160.001Z" fill="white"/>
<path id="Vector_6" d="M142.636 58.005C138.257 58.005 135.102 56.2148 133.171 52.6342C131.241 49.0059 130.275 44.3989 130.275 38.8132C130.275 35.8533 130.746 33.1321 131.688 30.6496C132.63 28.1671 134.019 26.1858 135.855 24.7058C137.739 23.1781 140.022 22.4143 142.706 22.4143C144.967 22.4143 146.921 23.0827 148.569 24.4194C150.217 25.7561 151.535 27.4987 152.524 29.647H153.654L153.725 10.9565V3.72378C153.019 3.96248 152.265 4.08183 151.465 4.08183C151.135 4.08183 150.641 4.03409 149.981 3.93861V2.00511H150.617C150.617 2.3393 150.782 2.62574 151.112 2.86444C151.488 3.10315 151.912 3.2225 152.383 3.2225C153.089 3.2225 153.795 2.91218 154.502 2.29156C155.255 1.62318 155.938 0.859331 156.55 0H157.539V54.4961C157.633 55.8806 158.175 56.5728 159.163 56.5728C159.729 56.5728 160.341 56.4535 161 56.2148V57.2889H154.996L153.372 52.0613H152.1C150.17 56.0238 147.015 58.005 142.636 58.005ZM143.907 56.716C147.297 56.716 149.628 55.1645 150.9 52.0613C152.171 48.9104 152.807 44.8763 152.807 39.959C152.807 37.6675 152.477 35.2327 151.818 32.6547C151.206 30.0767 150.217 27.8806 148.851 26.0665C147.486 24.2046 145.791 23.2736 143.766 23.2736C140.846 23.2736 138.68 24.8729 137.268 28.0716C135.902 31.2702 135.22 35.2088 135.22 39.8874C135.22 44.6615 135.902 48.6717 137.268 51.9181C138.633 55.1167 140.846 56.716 143.907 56.716Z" fill="white"/>
<path id="Vector_7" d="M110.55 58.0048C105.558 58.0048 101.956 56.4055 99.7432 53.2069C97.5771 49.9605 96.4941 45.6161 96.4941 40.1736C96.4941 35.1608 97.6007 30.9597 99.8138 27.5701C102.027 24.1327 105.606 22.4141 110.55 22.4141C115.494 22.4141 119.073 24.1327 121.286 27.5701C123.546 30.9597 124.676 35.1608 124.676 40.1736C124.676 45.6161 123.569 49.9605 121.356 53.2069C119.143 56.4055 115.541 58.0048 110.55 58.0048ZM110.55 57.1455C113.752 57.1455 116.082 55.5939 117.542 52.4907C119.002 49.3399 119.732 45.2342 119.732 40.1736C119.732 35.4473 118.978 31.4609 117.472 28.2146C115.965 24.9205 113.657 23.2734 110.55 23.2734C107.442 23.2734 105.135 24.9205 103.628 28.2146C102.168 31.4609 101.438 35.4473 101.438 40.1736C101.438 45.2342 102.168 49.3399 103.628 52.4907C105.088 55.5939 107.395 57.1455 110.55 57.1455Z" fill="white"/>
<path id="Vector_8" d="M76.7685 58.0048C71.7772 58.0048 68.175 56.4055 65.9619 53.2069C63.7959 49.9605 62.7129 45.6161 62.7129 40.1736C62.7129 35.1608 63.8194 30.9597 66.0325 27.5701C68.2457 24.1327 71.8243 22.4141 76.7685 22.4141C81.7126 22.4141 85.2913 24.1327 87.5044 27.5701C89.7646 30.9597 90.8946 35.1608 90.8946 40.1736C90.8946 45.6161 89.7881 49.9605 87.575 53.2069C85.3619 56.4055 81.7597 58.0048 76.7685 58.0048ZM76.7685 57.1455C79.9704 57.1455 82.3012 55.5939 83.7609 52.4907C85.2206 49.3399 85.9505 45.2342 85.9505 40.1736C85.9505 35.4473 85.1971 31.4609 83.6903 28.2146C82.1835 24.9205 79.8762 23.2734 76.7685 23.2734C73.6607 23.2734 71.3534 24.9205 69.8466 28.2146C68.3869 31.4609 67.6571 35.4473 67.6571 40.1736C67.6571 45.2342 68.3869 49.3399 69.8466 52.4907C71.3063 55.5939 73.6136 57.1455 76.7685 57.1455Z" fill="white"/>
<path id="Vector_9" d="M17.0221 4.29688V6.08715V4.29688ZM66.9582 4.29688V6.08715C65.8752 5.75297 65.0276 5.58587 64.4155 5.58587C62.9558 5.58587 62.0846 6.11102 61.8021 7.16132C61.5196 8.11614 60.672 11.4341 59.2594 17.1153C53.2322 41.2244 50.1715 53.4938 50.0774 53.9234L49.2298 57.2891H45.0626L34.1148 18.6907L25.2859 53.7802L25.3565 53.9234L25.1446 54.3531L24.4383 57.2891H20.3417L6.49805 8.59355C6.26261 7.63873 5.79174 6.92262 5.08543 6.44521C4.42621 5.92006 3.57864 5.65749 2.54272 5.65749C1.74223 5.65749 0.894659 5.80071 0 6.08715V4.29688H17.0221V6.08715C16.1274 5.80071 15.3034 5.65749 14.55 5.65749C13.7966 5.65749 13.208 5.82458 12.7842 6.15876C12.3604 6.49295 12.1485 6.97036 12.1485 7.59099C12.1485 8.02065 12.1956 8.35484 12.2898 8.59355L24.509 50.9874L32.9847 14.6805L31.2189 8.59355C30.9364 7.59099 30.5832 6.85101 30.1594 6.3736C29.7827 5.89619 29.1941 5.65749 28.3937 5.65749C27.8286 5.65749 27.0752 5.80071 26.1335 6.08715V4.29688H44.4269V6.08715C43.4851 5.80071 42.4963 5.65749 41.4604 5.65749C40.0478 5.65749 38.8706 5.92006 37.9288 6.44521C37.0342 6.97036 36.7281 7.68647 37.0106 8.59355L49.3004 51.1306L59.33 8.59355C59.4242 8.3071 59.4713 7.94904 59.4713 7.51938C59.4713 6.13489 58.6237 5.44265 56.9286 5.44265C55.8927 5.44265 54.7861 5.65749 53.6089 6.08715V4.29688H66.9582Z" fill="white"/>
</g>
</svg>
